<mxfile host="app.diagrams.net" agent="Mozilla/5.0 (Macintosh; Intel Mac OS X 10_15_7) AppleWebKit/605.1.15 (KHTML, like Gecko) Version/18.3 Safari/605.1.15" version="26.0.16">
  <diagram name="Page-1" id="zk0IBZCfySzQGZSyrAQ5">
    <mxGraphModel dx="1226" dy="810" grid="1" gridSize="10" guides="1" tooltips="1" connect="1" arrows="1" fold="1" page="1" pageScale="1" pageWidth="827" pageHeight="1169" math="0" shadow="0">
      <root>
        <mxCell id="0" />
        <mxCell id="1" parent="0" />
        <mxCell id="cpSgUG0TKF3vMzKKmCbn-16" style="edgeStyle=orthogonalEdgeStyle;rounded=0;orthogonalLoop=1;jettySize=auto;html=1;entryX=0;entryY=0.5;entryDx=0;entryDy=0;" edge="1" parent="1" target="cpSgUG0TKF3vMzKKmCbn-12">
          <mxGeometry relative="1" as="geometry">
            <mxPoint x="65" y="340" as="sourcePoint" />
            <Array as="points">
              <mxPoint x="65" y="220" />
            </Array>
          </mxGeometry>
        </mxCell>
        <mxCell id="cpSgUG0TKF3vMzKKmCbn-1" value="Actor" style="shape=umlActor;verticalLabelPosition=bottom;verticalAlign=top;html=1;outlineConnect=0;" vertex="1" parent="1">
          <mxGeometry x="50" y="362.5" width="30" height="60" as="geometry" />
        </mxCell>
        <mxCell id="cpSgUG0TKF3vMzKKmCbn-9" style="edgeStyle=orthogonalEdgeStyle;rounded=0;orthogonalLoop=1;jettySize=auto;html=1;" edge="1" parent="1" source="cpSgUG0TKF3vMzKKmCbn-2" target="cpSgUG0TKF3vMzKKmCbn-6">
          <mxGeometry relative="1" as="geometry" />
        </mxCell>
        <mxCell id="cpSgUG0TKF3vMzKKmCbn-2" value="POD" style="shape=cylinder3;whiteSpace=wrap;html=1;boundedLbl=1;backgroundOutline=1;size=15;" vertex="1" parent="1">
          <mxGeometry x="180" y="530" width="60" height="80" as="geometry" />
        </mxCell>
        <mxCell id="cpSgUG0TKF3vMzKKmCbn-6" value="Welldata portal" style="html=1;verticalLabelPosition=bottom;align=center;labelBackgroundColor=#ffffff;verticalAlign=top;strokeWidth=2;strokeColor=#0080F0;shadow=0;dashed=0;shape=mxgraph.ios7.icons.window;" vertex="1" parent="1">
          <mxGeometry x="354" y="362.5" width="60" height="55" as="geometry" />
        </mxCell>
        <mxCell id="cpSgUG0TKF3vMzKKmCbn-8" style="edgeStyle=orthogonalEdgeStyle;rounded=0;orthogonalLoop=1;jettySize=auto;html=1;entryX=0;entryY=0.5;entryDx=0;entryDy=0;entryPerimeter=0;" edge="1" parent="1" source="cpSgUG0TKF3vMzKKmCbn-1" target="cpSgUG0TKF3vMzKKmCbn-2">
          <mxGeometry relative="1" as="geometry">
            <Array as="points">
              <mxPoint x="70" y="570" />
            </Array>
          </mxGeometry>
        </mxCell>
        <mxCell id="cpSgUG0TKF3vMzKKmCbn-11" value="Bebopp" style="html=1;verticalLabelPosition=bottom;align=center;labelBackgroundColor=#ffffff;verticalAlign=top;strokeWidth=2;strokeColor=#0080F0;shadow=0;dashed=0;shape=mxgraph.ios7.icons.window;" vertex="1" parent="1">
          <mxGeometry x="500" y="260" width="60" height="55" as="geometry" />
        </mxCell>
        <mxCell id="cpSgUG0TKF3vMzKKmCbn-17" style="edgeStyle=orthogonalEdgeStyle;rounded=0;orthogonalLoop=1;jettySize=auto;html=1;endArrow=none;startFill=0;" edge="1" parent="1" source="cpSgUG0TKF3vMzKKmCbn-12" target="cpSgUG0TKF3vMzKKmCbn-2">
          <mxGeometry relative="1" as="geometry" />
        </mxCell>
        <mxCell id="cpSgUG0TKF3vMzKKmCbn-12" value="Identity Provider" style="icon;html=1;image=img/clipart/Gear_128x128.png" vertex="1" parent="1">
          <mxGeometry x="180" y="190" width="60" height="60" as="geometry" />
        </mxCell>
        <mxCell id="cpSgUG0TKF3vMzKKmCbn-19" value="Bebopp" style="html=1;verticalLabelPosition=bottom;align=center;labelBackgroundColor=#ffffff;verticalAlign=top;strokeWidth=2;strokeColor=#0080F0;shadow=0;dashed=0;shape=mxgraph.ios7.icons.window;" vertex="1" parent="1">
          <mxGeometry x="500" y="450" width="60" height="55" as="geometry" />
        </mxCell>
        <mxCell id="cpSgUG0TKF3vMzKKmCbn-20" value="" style="shape=flexArrow;endArrow=classic;html=1;rounded=0;fillColor=#0066CC;strokeColor=none;" edge="1" parent="1">
          <mxGeometry width="50" height="50" relative="1" as="geometry">
            <mxPoint x="420" y="350" as="sourcePoint" />
            <mxPoint x="470" y="300" as="targetPoint" />
          </mxGeometry>
        </mxCell>
        <mxCell id="cpSgUG0TKF3vMzKKmCbn-21" value="HTI launch" style="edgeLabel;html=1;align=center;verticalAlign=middle;resizable=0;points=[];" vertex="1" connectable="0" parent="cpSgUG0TKF3vMzKKmCbn-20">
          <mxGeometry x="-0.18" y="-1" relative="1" as="geometry">
            <mxPoint as="offset" />
          </mxGeometry>
        </mxCell>
        <mxCell id="cpSgUG0TKF3vMzKKmCbn-22" value="" style="shape=flexArrow;endArrow=classic;html=1;rounded=0;fillColor=#0066CC;strokeColor=none;" edge="1" parent="1">
          <mxGeometry width="50" height="50" relative="1" as="geometry">
            <mxPoint x="430" y="440" as="sourcePoint" />
            <mxPoint x="480" y="480" as="targetPoint" />
          </mxGeometry>
        </mxCell>
        <mxCell id="cpSgUG0TKF3vMzKKmCbn-23" value="HTI launch" style="edgeLabel;html=1;align=center;verticalAlign=middle;resizable=0;points=[];" vertex="1" connectable="0" parent="cpSgUG0TKF3vMzKKmCbn-22">
          <mxGeometry x="-0.18" y="-1" relative="1" as="geometry">
            <mxPoint as="offset" />
          </mxGeometry>
        </mxCell>
      </root>
    </mxGraphModel>
  </diagram>
</mxfile>
